{"title":"Pearl.Harbor.2001.DVDRip.XviD[ENG]-NWO","uid":5534622,"size":731273888,"categoryP":"video","categoryS":"movies","magnet":"?xt=urn:btih:eddec3c6886e6a5ce13edc77d7b60017f13a9f60&amp;dn=Pearl.Harbor.2001.DVDRip.XviD%5BENG%5D-NWO&amp;tr=udp%3A%2F%2Ftracker.openbittorrent.com%3A80&amp;tr=udp%3A%2F%2Fopen.demonii.com%3A1337&amp;tr=udp%3A%2F%2Ftracker.coppersurfer.tk%3A6969&amp;tr=udp%3A%2F%2Fexodus.desync.com%3A6969","seeders":1,"leechers":0,"uploader":"TerraWatt","files":3,"time":1273029050,"description":"Format : AVI\nFormat/Info : Audio Video Interleave\nFile size : 697 MiB\nDuration : 3h 3mn\nOverall bit rate : 531 Kbps\nWriting application : VirtualDubMod 1.5.10.2 (build 2540/release)\nWriting library : VirtualDubMod build 2540/release\n\nVideo\nID : 0\nFormat : MPEG-4 Visual\nFormat profile : Advanced Simple@L5\nFormat settings, BVOP : Yes\nFormat settings, QPel : No\nFormat settings, GMC : No warppoints\nFormat settings, Matrix : Default (H.263)\nCodec ID : DIVX\nCodec ID/Info : Project Mayo\nCodec ID/Hint : DivX 4\nDuration : 3h 3mn\nBit rate : 417 Kbps\nWidth : 680 pixels\nHeight : 288 pixels\nDisplay aspect ratio : 2.35:1\nFrame rate : 23.976 fps\nResolution : 8 bits\nColorimetry : 4:2:0\nScan type : Progressive\nBits/(Pixel*Frame) : 0.089\nStream size : 547 MiB (79%)\nWriting library : XviD 1.2.1 (UTC 2008-12-04)\n\nAudio\nID : 1\nFormat : MPEG Audio\nFormat version : Version 1\nFormat profile : Layer 3\nFormat_Settings_Mode : Joint stereo\nCodec ID : 55\nCodec ID/Hint : MP3\nDuration : 3h 3mn\nBit rate mode : Variable\nBit rate : 102 Kbps\nNominal bit rate : 106 Kbps\nChannel(s) : 2 channels\nSampling rate : 44.1 KHz\nStream size : 134 MiB (19%)\nAlignment : Aligned on interleaves\nInterleave, duration : 26 ms (0.63 video frame)\nInterleave, preload duration : 188 ms\nWriting library : LAME3.90.\nEncoding settings : -m j -V 4 -q 2 -lowpass 16 --abr 106","torrent":{"xt":"urn:btih:eddec3c6886e6a5ce13edc77d7b60017f13a9f60","amp;dn":"Pearl.Harbor.2001.DVDRip.XviD%5BENG%5D-NWO","amp;tr":["udp%3A%2F%2Ftracker.openbittorrent.com%3A80","udp%3A%2F%2Fopen.demonii.com%3A1337","udp%3A%2F%2Ftracker.coppersurfer.tk%3A6969","udp%3A%2F%2Fexodus.desync.com%3A6969"],"infoHash":"eddec3c6886e6a5ce13edc77d7b60017f13a9f60","infoHashBuffer":{"type":"Buffer","data":[237,222,195,198,136,110,106,92,225,62,220,119,215,182,0,23,241,58,159,96]},"announce":[],"urlList":[]}}